<svg width="883" height="779" viewBox="0 0 883 779" fill="none" xmlns="http://www.w3.org/2000/svg">
<g clip-path="url(#clip0_2084_2041)">
<path d="M342.362 20.0599L345.831 14.6979C344.803 11.8557 343.614 9.07381 342.272 6.36544L340.028 8.17749L341.805 5.43215C340.112 2.09965 338.78 0 338.78 0C338.78 0 331.822 10.9651 329.497 22.5747L333.949 29.4554L329.02 25.4744C328.845 26.8268 328.754 28.1889 328.75 29.5526C328.75 43.3022 333.24 54.4484 338.78 54.4484C344.319 54.4484 348.81 43.3022 348.81 29.5526C348.706 25.1781 347.932 20.8454 346.515 16.7053L342.362 20.0599Z" fill="#E6E6E6"/>
<path d="M366.92 31.9801L373.165 30.6419C374.447 27.9046 375.574 25.0972 376.54 22.233L373.672 21.9279L376.869 21.2427C378.029 17.6892 378.571 15.2626 378.571 15.2626C378.571 15.2626 365.898 18.0959 356.045 24.6612L354.327 32.6748L353.657 26.3747C352.577 27.2068 351.55 28.1061 350.582 29.0672C340.86 38.7896 336.154 49.8465 340.071 53.7635C343.988 57.6804 355.044 52.9741 364.767 43.2517C367.787 40.085 370.303 36.4741 372.229 32.5449L366.92 31.9801Z" fill="#E6E6E6"/>
<path d="M369.201 85.184C354.72 86.1103 338.941 85.1301 322.155 85.184V46.7521C336.946 49.0548 352.72 48.8183 369.201 46.7521V85.184Z" fill="#E6E6E6"/>
<path d="M472.802 115.152L475.064 111.655C474.393 109.801 473.618 107.987 472.743 106.221L471.28 107.402L472.438 105.612C471.334 103.439 470.466 102.07 470.466 102.07C467.678 106.624 465.635 111.594 464.412 116.791L467.315 121.279L464.101 118.682C463.986 119.564 463.928 120.453 463.925 121.342C463.925 130.309 466.853 137.578 470.466 137.578C474.078 137.578 477.007 130.309 477.007 121.342C476.939 118.489 476.434 115.664 475.51 112.964L472.802 115.152Z" fill="#E6E6E6"/>
<path d="M488.817 122.925L492.889 122.052C493.726 120.267 494.46 118.436 495.09 116.569L493.22 116.37L495.305 115.923C496.061 113.605 496.415 112.023 496.415 112.023C491.224 113.272 486.265 115.341 481.725 118.152L480.605 123.378L480.168 119.27C479.463 119.812 478.793 120.399 478.162 121.025C471.822 127.366 468.753 134.577 471.307 137.131C473.862 139.685 481.072 136.616 487.413 130.276C489.382 128.211 491.023 125.856 492.279 123.293L488.817 122.925Z" fill="#E6E6E6"/>
<path d="M490.304 157.622C480.861 158.226 470.571 157.586 459.624 157.622V132.559C469.801 133.984 480.127 133.984 490.304 132.559V157.622Z" fill="#E6E6E6"/>
<path d="M484.473 231.898C476.134 232.431 467.048 231.867 457.382 231.898V209.767C466.368 211.026 475.486 211.026 484.473 209.767V231.898Z" fill="#E6E6E6"/>
<path d="M532.055 82.4813H167.508V92.6642H532.055V82.4813Z" fill="#E6E6E6"/>
<path d="M532.055 154.78H167.508V164.963H532.055V154.78Z" fill="#E6E6E6"/>
<path d="M532.055 227.078H167.508V237.261H532.055V227.078Z" fill="#E6E6E6"/>
<path d="M470.958 217.914C482.206 217.914 491.324 208.796 491.324 197.548C491.324 186.3 482.206 177.182 470.958 177.182C459.71 177.182 450.592 186.3 450.592 197.548C450.592 208.796 459.71 217.914 470.958 217.914Z" fill="#E6E6E6"/>
<path d="M470.958 213.84C479.956 213.84 487.251 206.546 487.251 197.548C487.251 188.55 479.956 181.255 470.958 181.255C461.96 181.255 454.665 188.55 454.665 197.548C454.665 206.546 461.96 213.84 470.958 213.84Z" fill="white"/>
<path d="M470.958 201.621C473.208 201.621 475.031 199.797 475.031 197.548C475.031 195.298 473.208 193.475 470.958 193.475C468.709 193.475 466.885 195.298 466.885 197.548C466.885 199.797 468.709 201.621 470.958 201.621Z" fill="#E6E6E6"/>
<path d="M485.214 198.566V196.53H468.922V198.566H485.214Z" fill="#E6E6E6"/>
<path d="M469.94 199.584H471.976V183.292H469.94V199.584Z" fill="#E6E6E6"/>
<path d="M353.201 105.104H339.725V158.443H353.201V105.104Z" fill="#E6E6E6"/>
<path d="M353.201 113.526H339.725V119.702H353.201V113.526Z" fill="#CCCCCC"/>
<path d="M353.201 140.476H339.725V146.652H353.201V140.476Z" fill="#CCCCCC"/>
<path d="M332.426 105.104H318.951V158.443H332.426V105.104Z" fill="#E6E6E6"/>
<path d="M332.426 113.526H318.951V119.702H332.426V113.526Z" fill="#CCCCCC"/>
<path d="M332.426 140.476H318.951V146.652H332.426V140.476Z" fill="#CCCCCC"/>
<path d="M364.811 104.884L352.735 110.862L376.401 158.664L388.477 152.685L364.811 104.884Z" fill="#E6E6E6"/>
<path d="M368.548 112.431L356.472 118.41L359.212 123.945L371.288 117.966L368.548 112.431Z" fill="#CCCCCC"/>
<path d="M380.505 136.583L368.429 142.562L371.169 148.097L383.245 142.118L380.505 136.583Z" fill="#CCCCCC"/>
<path d="M233.043 177.403H219.567V230.741H233.043V177.403Z" fill="#E6E6E6"/>
<path d="M233.043 185.825H219.567V192.001H233.043V185.825Z" fill="#CCCCCC"/>
<path d="M233.043 212.775H219.567V218.951H233.043V212.775Z" fill="#CCCCCC"/>
<path d="M212.268 177.403H198.793V230.741H212.268V177.403Z" fill="#E6E6E6"/>
<path d="M212.268 185.825H198.793V192.001H212.268V185.825Z" fill="#CCCCCC"/>
<path d="M212.268 212.775H198.793V218.951H212.268V212.775Z" fill="#CCCCCC"/>
<path d="M244.653 177.182L232.577 183.161L256.243 230.962L268.319 224.983L244.653 177.182Z" fill="#E6E6E6"/>
<path d="M248.39 184.73L236.314 190.708L239.054 196.243L251.13 190.265L248.39 184.73Z" fill="#CCCCCC"/>
<path d="M260.347 208.882L248.271 214.861L251.011 220.395L263.087 214.417L260.347 208.882Z" fill="#CCCCCC"/>
<path d="M359.31 177.403H345.835V230.741H359.31V177.403Z" fill="#E6E6E6"/>
<path d="M359.31 185.825H345.835V192.001H359.31V185.825Z" fill="#CCCCCC"/>
<path d="M359.31 212.775H345.835V218.951H359.31V212.775Z" fill="#CCCCCC"/>
<path d="M338.536 177.403H325.061V230.741H338.536V177.403Z" fill="#E6E6E6"/>
<path d="M338.536 185.825H325.061V192.001H338.536V185.825Z" fill="#CCCCCC"/>
<path d="M338.536 212.775H325.061V218.951H338.536V212.775Z" fill="#CCCCCC"/>
<path d="M370.921 177.182L358.845 183.161L382.51 230.962L394.586 224.983L370.921 177.182Z" fill="#E6E6E6"/>
<path d="M374.657 184.73L362.581 190.708L365.322 196.243L377.398 190.265L374.657 184.73Z" fill="#CCCCCC"/>
<path d="M386.615 208.882L374.539 214.861L377.279 220.395L389.355 214.417L386.615 208.882Z" fill="#CCCCCC"/>
<path d="M503.543 32.6457H449.987V86.2016H503.543V32.6457Z" fill="#E6E6E6"/>
<path d="M492.832 43.3569H460.699V75.4904H492.832V43.3569Z" fill="#CCCCCC"/>
<path d="M470 54.143L476.814 65.944L483.627 77.745H470H456.373L463.187 65.944L470 54.143Z" fill="#E6E6E6"/>
<path d="M481.839 56.398L488.653 68.199L495.466 80H481.839H468.212L475.026 68.199L481.839 56.398Z" fill="#E6E6E6"/>
<path d="M486.631 52.9406C488.81 52.9406 490.577 51.1738 490.577 48.9943C490.577 46.8149 488.81 45.0481 486.631 45.0481C484.451 45.0481 482.685 46.8149 482.685 48.9943C482.685 51.1738 484.451 52.9406 486.631 52.9406Z" fill="#E6E6E6"/>
<path d="M232.679 32.6457H179.123V86.2016H232.679V32.6457Z" fill="#E6E6E6"/>
<path d="M221.968 43.3569H189.834V75.4904H221.968V43.3569Z" fill="#CCCCCC"/>
<path d="M199.136 54.143L205.949 65.944L212.763 77.745H199.136H185.509L192.322 65.944L199.136 54.143Z" fill="#E6E6E6"/>
<path d="M210.975 56.398L217.788 68.199L224.601 80H210.975H197.348L204.161 68.199L210.975 56.398Z" fill="#E6E6E6"/>
<path d="M215.766 52.9406C217.946 52.9406 219.713 51.1738 219.713 48.9943C219.713 46.8149 217.946 45.0481 215.766 45.0481C213.587 45.0481 211.82 46.8149 211.82 48.9943C211.82 51.1738 213.587 52.9406 215.766 52.9406Z" fill="#E6E6E6"/>
<path d="M71.4974 397.845L74.9669 392.483C73.938 389.64 72.7497 386.859 71.4074 384.15L69.1639 385.962L70.9403 383.217C69.2474 379.884 67.9153 377.785 67.9153 377.785C67.9153 377.785 60.957 388.75 58.6323 400.359L63.0845 407.24L58.1557 403.259C57.9801 404.611 57.8898 405.974 57.8853 407.337C57.8853 421.087 62.3759 432.233 67.9153 432.233C73.4547 432.233 77.9453 421.087 77.9453 407.337C77.8414 402.963 77.0675 398.63 75.6507 394.49L71.4974 397.845Z" fill="#6C63FF"/>
<path d="M96.0553 409.765L102.3 408.427C103.582 405.689 104.709 402.882 105.675 400.018L102.807 399.713L106.005 399.027C107.164 395.474 107.707 393.047 107.707 393.047C107.707 393.047 95.0331 395.881 85.1801 402.446L83.4629 410.46L82.7927 404.159C81.7123 404.992 80.6852 405.891 79.7177 406.852C69.9953 416.574 65.289 427.631 69.206 431.548C73.1229 435.465 84.1798 430.759 93.9023 421.036C96.922 417.87 99.4386 414.259 101.364 410.33L96.0553 409.765Z" fill="#6C63FF"/>
<path d="M98.3363 462.969C83.8551 463.895 68.0764 462.915 51.2904 462.969V424.537C66.0816 426.84 81.8551 426.603 98.3363 424.537V462.969Z" fill="#3F3D56"/>
<path d="M696.509 475.031H500.998V728.585H696.509V475.031Z" fill="#E6E6E6"/>
<path d="M102.847 488.269H92.6642V728.585H102.847V488.269Z" fill="#E6E6E6"/>
<path d="M696.509 457.72H0V478.086H696.509V457.72Z" fill="#E6E6E6"/>
<path d="M107.939 478.086H87.5728V498.452H107.939V478.086Z" fill="#E6E6E6"/>
<path d="M614.155 489.796L613.009 494.379H584.497L582.779 489.796H510.162V536.638H687.344V489.796H614.155Z" fill="#3F3D56"/>
<path d="M614.155 548.857L613.009 553.439H584.497L582.779 548.857H510.162V595.698H687.344V548.857H614.155Z" fill="#3F3D56"/>
<path d="M614.155 607.918L613.009 612.5H584.497L582.779 607.918H510.162V654.759H687.344V607.918H614.155Z" fill="#3F3D56"/>
<path d="M614.155 666.979L613.009 671.561H584.497L582.779 666.979H510.162V713.82H687.344V666.979H614.155Z" fill="#3F3D56"/>
<path d="M377.785 454.665H317.706L319.742 428.19H375.748L377.785 454.665Z" fill="#E6E6E6"/>
<path d="M381.858 451.611H314.651V457.72H381.858V451.611Z" fill="#E6E6E6"/>
<path d="M462.812 257.627H233.188C231.567 257.627 230.013 258.27 228.868 259.416C227.722 260.562 227.078 262.116 227.078 263.737V403.751H468.922V263.737C468.922 262.116 468.278 260.562 467.132 259.416C465.986 258.27 464.432 257.627 462.812 257.627Z" fill="#3F3D56"/>
<path d="M227.078 403.751V426.663C227.078 428.283 227.722 429.837 228.868 430.983C230.013 432.129 231.568 432.772 233.188 432.772H462.812C464.432 432.772 465.986 432.129 467.132 430.983C468.278 429.837 468.922 428.283 468.922 426.663V403.751H227.078Z" fill="#E6E6E6"/>
<path d="M457.211 270.355H239.298V392.55H457.211V270.355Z" fill="white"/>
<path d="M348.254 424.117C351.629 424.117 354.364 421.381 354.364 418.007C354.364 414.633 351.629 411.897 348.254 411.897C344.88 411.897 342.145 414.633 342.145 418.007C342.145 421.381 344.88 424.117 348.254 424.117Z" fill="#3F3D56"/>
<path d="M865.036 727.057C842.781 728.481 818.533 726.975 792.737 727.057V667.997C815.468 671.535 839.708 671.172 865.036 667.997V727.057Z" fill="#3F3D56"/>
<path d="M831.432 673.3H825.322L827.359 553.949H829.395L831.432 673.3Z" fill="#3F3D56"/>
<path d="M858.926 674.107H852.816L854.853 554.755H856.889L858.926 674.107Z" fill="#3F3D56"/>
<path d="M806.993 674.107H800.883L802.92 554.755H804.956L806.993 674.107Z" fill="#3F3D56"/>
<path d="M836.523 477.577L846.386 462.334C843.461 454.255 840.083 446.347 836.268 438.648L829.89 443.799L834.94 435.995C830.127 426.521 826.341 420.553 826.341 420.553C826.341 420.553 806.56 451.723 799.952 484.725L812.608 504.285L798.597 492.969C798.098 496.813 797.841 500.685 797.829 504.562C797.829 543.647 810.594 575.333 826.341 575.333C842.087 575.333 854.853 543.647 854.853 504.562C854.853 492.445 852.111 479.768 848.33 468.041L836.523 477.577Z" fill="#E6E6E6"/>
<path d="M864.017 479.614L873.88 464.371C870.955 456.292 867.577 448.383 863.761 440.684L857.384 445.835L862.434 438.031C857.621 428.558 853.834 422.589 853.834 422.589C853.834 422.589 834.054 453.76 827.446 486.762L840.102 506.322L826.091 495.005C825.592 498.85 825.335 502.722 825.322 506.598C825.322 545.684 838.088 577.369 853.834 577.369C869.581 577.369 882.346 545.684 882.346 506.598C882.346 494.481 879.605 481.804 875.824 470.078L864.017 479.614Z" fill="#6C63FF"/>
<path d="M812.085 479.614L821.947 464.371C819.022 456.292 815.644 448.383 811.829 440.684L805.451 445.835L810.501 438.031C805.688 428.558 801.902 422.589 801.902 422.589C801.902 422.589 782.121 453.76 775.513 486.762L788.169 506.322L774.158 495.005C773.659 498.85 773.403 502.722 773.39 506.598C773.39 545.684 786.155 577.369 801.902 577.369C817.648 577.369 830.414 545.684 830.414 506.598C830.414 494.481 827.673 481.804 823.891 470.078L812.085 479.614Z" fill="#6C63FF"/>
<path d="M400.696 317.151H309.964V320.524H400.696V317.151Z" fill="#6C63FF"/>
<path d="M383.909 328.742H309.964V332.115H383.909V328.742Z" fill="#6C63FF"/>
<path d="M353.132 340.29H309.964V343.663H353.132V340.29Z" fill="#3F3D56"/>
<path d="M375.115 351.837H309.964V355.21H375.115V351.837Z" fill="#3F3D56"/>
<path d="M290.379 315.24H283.184V322.435H290.379V315.24Z" fill="#6C63FF"/>
<path d="M290.379 326.831H283.184V334.026H290.379V326.831Z" fill="#6C63FF"/>
<path d="M290.379 338.423H283.184V345.617H290.379V338.423Z" fill="#3F3D56"/>
<path d="M290.379 350.014H283.184V357.209H290.379V350.014Z" fill="#3F3D56"/>
<path d="M447.115 298.463H416.282C414.178 286.299 414.178 273.864 416.282 261.7H447.115C443.642 273.708 443.642 286.455 447.115 298.463Z" fill="#6C63FF"/>
<path d="M222.764 372.144L210.079 369.052C205.239 369.059 200.457 367.988 196.081 365.92C191.705 363.851 187.843 360.835 184.776 357.091C181.709 353.346 179.512 348.967 178.345 344.269C177.178 339.571 177.07 334.673 178.028 329.928V329.928C178.014 318.608 182.498 307.745 190.493 299.73C198.487 291.715 209.339 287.204 220.659 287.19H220.659C231.98 287.176 242.843 291.659 250.858 299.654C258.873 307.649 263.383 318.5 263.398 329.821V329.821C270.59 354.849 248.064 378.312 222.764 372.144Z" fill="#2F2E41"/>
<path d="M236.62 376.607C253.941 376.607 267.983 362.565 267.983 345.243C267.983 327.922 253.941 313.88 236.62 313.88C219.298 313.88 205.256 327.922 205.256 345.243C205.256 362.565 219.298 376.607 236.62 376.607Z" fill="#FFB8B8"/>
<path d="M216.165 361.607C216.165 361.607 206.62 394.334 201.165 397.062C195.711 399.789 244.802 403.88 244.802 403.88C244.802 403.88 243.438 372.516 246.165 369.789C248.893 367.061 216.165 361.607 216.165 361.607Z" fill="#FFB8B8"/>
<path d="M265.256 563.426C265.256 563.426 326.62 557.971 334.802 578.426C342.984 598.88 329.347 720.244 329.347 720.244H303.438V620.698C303.438 620.698 192.966 589.297 192.966 578.387C192.966 567.478 265.256 563.426 265.256 563.426Z" fill="#2F2E41"/>
<path d="M325.256 714.789L338.893 720.244C338.893 720.244 355.256 718.88 348.438 731.153C346.486 734.716 343.756 737.792 340.451 740.153C337.146 742.514 333.35 744.099 329.347 744.789C329.347 744.789 303.438 754.335 302.074 744.789C300.711 735.244 308.893 716.153 308.893 716.153L325.256 714.789Z" fill="#2F2E41"/>
<path d="M231.165 563.426C231.165 563.426 292.529 557.971 300.711 578.426C308.893 598.88 295.256 720.244 295.256 720.244H269.347V620.698C269.347 620.698 190.929 602.534 190.929 591.625C190.929 586.5 185.585 560.454 195.002 554.967C205.63 548.774 231.165 563.426 231.165 563.426Z" fill="#2F2E41"/>
<path d="M291.165 714.789L304.802 720.244C304.802 720.244 321.165 718.88 314.347 731.153C312.396 734.716 309.665 737.792 306.36 740.153C303.055 742.514 299.259 744.099 295.256 744.789C295.256 744.789 269.347 754.335 267.983 744.789C266.62 735.244 274.802 716.153 274.802 716.153L291.165 714.789Z" fill="#2F2E41"/>
<path d="M202.529 392.971L243.509 397.425C249.834 398.113 255.779 400.781 260.497 405.049C265.215 409.317 268.463 414.967 269.778 421.192L285.711 496.607C285.711 496.607 291.165 571.607 280.256 575.698C269.347 579.789 254.347 559.335 233.892 562.062C213.438 564.789 186.847 570.926 186.847 570.926C186.847 570.926 182.624 436.678 182.074 425.698C180.975 403.747 202.529 392.971 202.529 392.971Z" fill="#575A89"/>
<path d="M299.601 567.322L316.424 577.23C316.424 577.23 346.607 572.899 345.665 583.508C344.723 594.116 311.776 592.066 311.776 592.066L291.501 579.573L299.601 567.322Z" fill="#FFB8B8"/>
<path d="M175.743 319.735C186.932 319.735 196.003 310.664 196.003 299.475C196.003 288.286 186.932 279.215 175.743 279.215C164.554 279.215 155.483 288.286 155.483 299.475C155.483 310.664 164.554 319.735 175.743 319.735Z" fill="#2F2E41"/>
<path d="M194.436 288.584C194.434 285.587 193.766 282.628 192.482 279.92C191.197 277.213 189.328 274.824 187.008 272.926C184.689 271.029 181.977 269.67 179.069 268.947C176.16 268.225 173.128 268.157 170.19 268.748C172.782 267.523 175.605 266.862 178.471 266.81C181.338 266.758 184.183 267.315 186.818 268.444C189.453 269.573 191.819 271.249 193.758 273.361C195.697 275.473 197.165 277.973 198.066 280.695C198.967 283.417 199.28 286.299 198.983 289.15C198.687 292.002 197.788 294.758 196.347 297.237C194.906 299.715 192.954 301.859 190.623 303.527C188.291 305.195 185.631 306.349 182.82 306.912C186.296 305.275 189.234 302.682 191.291 299.436C193.348 296.191 194.439 292.427 194.436 288.584V288.584Z" fill="#2F2E41"/>
<path d="M211.817 300.074L239.13 295.045L260.135 308.21C265.299 311.446 269.426 316.096 272.028 321.608C274.629 327.119 275.596 333.261 274.812 339.305L253.775 333.973L249.064 322.161L243.454 331.357L214.12 369.107L197.65 358.619L182.967 335.609L211.817 300.074Z" fill="#2F2E41"/>
<path d="M234.309 404.57L247.945 397.752C247.945 397.752 276.582 401.843 282.036 420.934C287.491 440.025 312.036 572.298 312.036 572.298L288.854 583.207L256.127 502.753L234.309 404.57Z" fill="#575A89"/>
<path opacity="0.2" d="M245.917 458.23L259.565 511.205L283.767 570.701L282.928 572.761L254.063 512.199L245.917 458.23Z" fill="black"/>
<path d="M144.084 750.379L139.271 748.721L185.896 610.231L192.636 612.553L144.084 750.379Z" fill="#3F3D56"/>
<path d="M322.291 750.379L327.105 748.721L280.479 610.231L273.74 612.553L322.291 750.379Z" fill="#3F3D56"/>
<path d="M223.77 778.981L228.861 778.999L230.443 617.107L223.315 617.082L223.77 778.981Z" fill="#3F3D56"/>
<path d="M132.3 528.856L146.266 585.301C148.221 593.206 152.293 600.429 158.044 606.194C163.795 611.958 171.008 616.048 178.908 618.023H178.908C217.857 627.76 258.635 627.497 297.455 617.259L318.306 611.76C330.422 608.565 339.532 598.159 340.395 585.659C340.744 581.239 339.944 576.805 338.072 572.787C337.99 572.614 337.908 572.442 337.826 572.272C335.107 566.686 330.912 561.95 325.695 558.577C320.478 555.204 314.437 553.321 308.228 553.134L286.139 552.421L205.694 516.781C205.694 516.781 178.027 502.728 155.283 501.155C140.262 500.116 128.683 514.24 132.3 528.856Z" fill="#6C63FF"/>
<path d="M622.683 351.309H543.257V459.248H622.683V351.309Z" fill="#E6E6E6"/>
<path d="M613.518 363.764H552.421V446.793H613.518V363.764Z" fill="white"/>
<path d="M606.069 385.492H576.467V388.865H606.069V385.492Z" fill="#3F3D56"/>
<path d="M567.065 383.625H559.87V390.819H567.065V383.625Z" fill="#3F3D56"/>
<path d="M606.069 399.748H576.467V403.121H606.069V399.748Z" fill="#3F3D56"/>
<path d="M567.065 397.881H559.87V405.075H567.065V397.881Z" fill="#3F3D56"/>
<path d="M606.069 414.004H576.467V417.377H606.069V414.004Z" fill="#3F3D56"/>
<path d="M567.065 412.137H559.87V419.331H567.065V412.137Z" fill="#3F3D56"/>
<path d="M586.025 357.419C586.025 355.732 584.657 354.364 582.97 354.364C581.283 354.364 579.915 355.732 579.915 357.419C579.915 359.106 581.283 360.474 582.97 360.474C584.657 360.474 586.025 359.106 586.025 357.419Z" fill="#3F3D56"/>
<path fill-rule="evenodd" clip-rule="evenodd" d="M310.466 303.994C310.212 304.385 309.323 305.687 306.86 305.427C306.64 305.027 306.529 304.541 306.529 303.968C306.529 303.742 306.538 303.568 306.555 303.447C305.183 305.149 303.634 306 301.907 306C300.942 306 300.061 305.739 299.266 305.218C298.47 304.697 297.835 303.942 297.361 302.952C296.904 301.962 296.675 300.798 296.675 299.46C296.675 297.998 296.913 296.52 297.39 295.027C289.371 296.633 278.855 297.763 271 296.85C279.356 297.124 289.812 296.15 297.63 294.327C297.817 293.817 298.032 293.304 298.275 292.79C299.359 290.532 300.73 288.674 302.39 287.215C304.066 285.738 305.734 285 307.393 285C308.426 285 309.188 285.295 309.679 285.886C311.522 288.038 309.688 291.205 307.495 292.203C305.907 292.913 303.34 293.693 300.201 294.421C299.476 296.332 299.113 298.107 299.113 299.747C299.113 300.772 299.266 301.666 299.57 302.43C299.875 303.177 300.282 303.751 300.789 304.15C301.314 304.55 301.89 304.749 302.517 304.749C303.397 304.749 304.201 304.376 304.929 303.629C305.674 302.865 306.275 301.909 306.733 300.763C307.19 299.617 307.469 298.47 307.571 297.324C306.741 297.15 305.835 297.063 304.853 297.063C304.548 297.063 303.838 296.846 303.025 296.881C303.025 296.256 303.279 295.708 303.279 295.708C303.279 295.708 304.667 295.344 305.209 295.344C305.615 295.344 306.03 295.404 306.453 295.526C306.877 295.63 307.41 295.795 308.053 296.021C308.764 296.299 309.374 296.49 309.882 296.594C309.137 298.957 308.663 300.537 308.46 301.336C308.273 302.118 308.18 302.908 308.18 303.707L308.434 304.385C308.994 304.306 310.593 303.212 310.466 303.994L310.466 303.994ZM308.669 289.169C309.124 288.114 309.268 287.086 308.638 286.485C308.417 286.259 308.079 286.146 307.622 286.146C306.386 286.146 305.099 286.893 303.761 288.387C302.494 289.803 301.422 291.531 300.545 293.571C304.74 292.358 307.782 290.863 308.669 289.169ZM340.784 304.854C339.599 304.854 338.719 304.497 338.143 303.785C337.758 303.307 337.506 302.762 337.386 302.151C337.136 302.476 336.871 302.769 336.59 303.03C335.676 303.881 334.694 304.306 333.644 304.306C332.933 304.306 332.382 304.089 331.993 303.655C331.603 303.221 331.409 302.665 331.409 301.988C331.409 301.896 331.412 301.799 331.419 301.699L331.351 301.779C330.741 302.491 330.056 303.073 329.294 303.525C328.549 303.976 327.812 304.202 327.084 304.202C326.458 304.202 325.95 304.029 325.56 303.681C325.171 303.351 324.976 302.9 324.976 302.326C324.976 301.996 325.035 301.64 325.154 301.258C325.289 300.859 325.484 300.381 325.738 299.825C325.958 299.339 326.127 298.931 326.246 298.6C326.364 298.253 326.424 297.949 326.424 297.689C326.424 297.029 326.001 296.473 325.154 296.021C324.815 296.89 324.417 297.767 323.96 298.653C323.621 299.335 323.307 299.935 323.018 300.453C322.48 301.469 321.852 302.319 321.132 303.004C320.201 303.872 319.261 304.306 318.313 304.306C317.636 304.306 317.111 304.072 316.739 303.603C316.383 303.151 316.205 302.63 316.205 302.04C315.443 302.978 314.791 303.664 314.25 304.098C313.708 304.532 313.132 304.749 312.523 304.749C311.93 304.749 311.439 304.55 311.049 304.15C310.643 303.751 310.44 303.186 310.44 302.457C310.44 301.449 310.796 300.32 311.507 299.07C312.235 297.819 313.158 296.759 314.275 295.891C315.392 295.022 316.51 294.588 317.627 294.588C318.372 294.588 318.991 294.788 319.482 295.187C319.99 295.569 320.244 296.064 320.244 296.672C320.244 297.471 319.761 297.888 318.796 297.923C319.405 298.114 319.71 298.375 319.71 298.705C319.71 298.826 319.651 299.009 319.532 299.252C319.414 299.495 319.278 299.747 319.126 300.007C318.855 300.459 318.643 300.859 318.491 301.206C318.339 301.536 318.262 301.849 318.262 302.144C318.262 302.404 318.322 302.63 318.44 302.821C318.576 302.995 318.77 303.082 319.024 303.082C319.499 303.082 320.099 302.743 320.828 302.066C321.447 301.503 322.049 300.705 322.633 299.674C323.31 298.374 323.914 296.957 324.443 295.422C324.273 295.248 324.189 295.014 324.189 294.718C324.189 294.267 324.324 293.841 324.595 293.442C324.866 293.042 325.129 292.842 325.382 292.842C325.552 292.842 325.687 292.947 325.789 293.155C325.907 293.364 325.967 293.537 325.967 293.676C325.967 293.746 325.924 293.902 325.84 294.145C325.772 294.371 325.721 294.536 325.687 294.64C325.704 294.762 325.772 294.883 325.89 295.005C326.009 295.109 326.229 295.266 326.551 295.474C327.143 295.873 327.6 296.264 327.922 296.646C328.261 297.011 328.43 297.506 328.43 298.132C328.43 298.514 328.362 298.896 328.227 299.278C328.108 299.66 327.922 300.12 327.668 300.659C327.296 301.423 327.11 301.97 327.11 302.3C327.11 302.7 327.321 302.899 327.745 302.899C328.252 302.899 328.803 302.691 329.395 302.274C330.005 301.857 330.555 301.354 331.046 300.763C331.343 300.408 331.593 300.068 331.798 299.742C331.849 299.559 331.906 299.37 331.968 299.174C332.357 297.975 332.84 296.924 333.415 296.021C334.008 295.118 334.6 294.666 335.193 294.666C335.413 294.666 335.591 294.736 335.727 294.875C335.879 294.996 335.955 295.179 335.955 295.422C335.955 295.578 335.887 295.795 335.752 296.073C335.617 296.334 335.396 296.716 335.092 297.219C334.55 298.14 334.118 298.956 333.796 299.669C333.492 300.364 333.339 301.024 333.339 301.649C333.339 302.187 333.432 302.552 333.619 302.743C333.805 302.934 334.093 303.03 334.482 303.03C335.429 303.03 336.372 302.363 337.311 301.031C337.338 300.488 337.454 300.104 337.66 299.877C337.866 299.636 338.091 299.447 338.334 299.311C338.379 299.223 338.425 299.134 338.47 299.043L338.597 299.183C338.811 299.081 338.939 299.008 338.981 298.965C340.065 297.819 340.886 296.629 341.445 295.396V295.135C341.445 294.492 341.546 294.015 341.75 293.702C341.97 293.39 342.249 293.233 342.588 293.233C342.96 293.233 343.164 293.407 343.197 293.754C343.197 293.841 343.172 293.971 343.121 294.145C343.087 294.319 343.07 294.501 343.07 294.692C343.07 295.022 343.121 295.37 343.223 295.734C343.324 296.099 343.485 296.594 343.705 297.219C343.976 297.984 344.179 298.644 344.315 299.2C344.467 299.755 344.543 300.32 344.543 300.893C344.543 301.188 344.51 301.545 344.442 301.962C345.593 301.666 346.656 298.253 348.37 297.588C351.167 296.503 362.144 296.763 367.978 296.85C368.753 296.861 349.251 297.248 347.957 298.661C346.31 300.458 345.754 302.513 344.213 302.743C343.942 303.438 343.502 303.959 342.893 304.306C342.283 304.671 341.58 304.853 340.785 304.853L340.784 304.854ZM342.435 301.909C342.486 301.753 342.512 301.484 342.512 301.102C342.494 300.546 342.435 299.999 342.334 299.46C342.232 298.922 342.08 298.227 341.877 297.376L341.648 296.438C340.818 297.914 340.082 299 339.438 299.695C339.726 300.199 340.132 300.659 340.657 301.076C341.182 301.475 341.775 301.753 342.435 301.909ZM340.607 303.707C340.945 303.707 341.259 303.62 341.546 303.447C341.851 303.273 342.08 303.021 342.232 302.691C341.572 302.552 340.962 302.292 340.403 301.909C339.845 301.51 339.396 301.084 339.057 300.633C338.82 300.685 338.702 300.919 338.702 301.336C338.702 301.962 338.871 302.517 339.21 303.004C339.548 303.473 340.014 303.707 340.607 303.707ZM336.641 292.556C336.285 292.556 335.981 292.469 335.727 292.295C335.489 292.122 335.371 291.87 335.371 291.54C335.371 291.14 335.583 290.793 336.006 290.498C336.446 290.185 336.912 290.028 337.403 290.028C338.131 290.028 338.495 290.35 338.495 290.993C338.495 291.357 338.3 291.713 337.911 292.061C337.521 292.391 337.098 292.556 336.641 292.556ZM313.056 303.421C313.648 303.421 314.334 302.986 315.113 302.118C315.909 301.232 316.806 300.086 317.805 298.679L318.313 297.975C318.364 297.888 318.432 297.845 318.516 297.845L318.618 297.871C318.703 297.593 318.745 297.272 318.745 296.907C318.745 296.004 318.389 295.552 317.678 295.552C316.933 295.552 316.155 295.96 315.342 296.777C314.529 297.593 313.843 298.566 313.285 299.695C312.743 300.824 312.472 301.788 312.472 302.587C312.472 302.882 312.514 303.099 312.599 303.238C312.7 303.36 312.853 303.421 313.056 303.421Z" fill="black"/>
<path d="M557.317 512.55L557.192 514.05C556.809 514.017 556.392 514 555.942 514C555.509 514 555.142 514.008 554.842 514.025C554.609 515.858 554.459 517.85 554.392 520H552.642C552.542 519.567 552.492 518.992 552.492 518.275C552.492 517.558 552.509 516.942 552.542 516.425C552.592 515.892 552.651 515.367 552.717 514.85C552.784 514.333 552.817 514.033 552.817 513.95C552.584 513.933 552.034 513.925 551.167 513.925C550.301 513.925 549.701 513.942 549.367 513.975C547.434 516.575 545.651 518.55 544.017 519.9C542.384 521.233 540.751 521.9 539.117 521.9C538.317 521.9 537.651 521.658 537.117 521.175C536.567 520.692 536.292 520.05 536.292 519.25C536.292 517.733 537.442 516.35 539.742 515.1C542.059 513.85 545.051 513.008 548.717 512.575C549.151 511.908 549.959 510.883 551.142 509.5C552.326 508.1 553.492 506.883 554.642 505.85C555.142 504.683 555.534 503.875 555.817 503.425C556.117 502.958 556.409 502.725 556.692 502.725C556.976 502.725 557.209 502.833 557.392 503.05C557.576 503.267 557.667 503.55 557.667 503.9C557.667 504.233 557.476 504.733 557.092 505.4C556.726 506.05 556.342 507.067 555.942 508.45C555.542 509.817 555.267 511.108 555.117 512.325C555.984 512.325 556.717 512.4 557.317 512.55ZM544.567 517.775C545.951 516.458 546.992 515.208 547.692 514.025C544.892 514.192 542.726 514.717 541.192 515.6C539.676 516.483 538.917 517.425 538.917 518.425C538.917 518.858 539.059 519.2 539.342 519.45C539.642 519.7 540.034 519.825 540.517 519.825C541.817 519.825 543.167 519.142 544.567 517.775ZM553.117 512.325C553.234 511.758 553.384 511.05 553.567 510.2C553.767 509.333 553.884 508.825 553.917 508.675C553.117 509.442 552.559 510.008 552.242 510.375C551.926 510.725 551.367 511.408 550.567 512.425C550.851 512.408 551.192 512.4 551.592 512.4C552.009 512.383 552.351 512.367 552.617 512.35C552.884 512.333 553.051 512.325 553.117 512.325ZM566.443 516.45L567.043 516.95C566.643 517.867 566.002 518.6 565.118 519.15C564.235 519.7 563.377 519.975 562.543 519.975C561.727 519.975 561.043 519.717 560.493 519.2C559.96 518.683 559.693 517.975 559.693 517.075C559.693 516.175 560.085 515.2 560.868 514.15C561.652 513.1 562.66 512.233 563.893 511.55C565.143 510.867 566.368 510.525 567.568 510.525C567.735 510.525 567.985 510.542 568.318 510.575L568.243 511.55C566.41 511.633 564.885 512.192 563.668 513.225C562.468 514.258 561.868 515.358 561.868 516.525C561.868 517.008 562.018 517.4 562.318 517.7C562.618 518 563.01 518.15 563.493 518.15C564.26 518.15 565.243 517.583 566.443 516.45ZM576.574 516.45L577.174 516.95C576.774 517.867 576.133 518.6 575.249 519.15C574.366 519.7 573.508 519.975 572.674 519.975C571.858 519.975 571.174 519.717 570.624 519.2C570.091 518.683 569.824 517.975 569.824 517.075C569.824 516.175 570.216 515.2 570.999 514.15C571.783 513.1 572.791 512.233 574.024 511.55C575.274 510.867 576.499 510.525 577.699 510.525C577.866 510.525 578.116 510.542 578.449 510.575L578.374 511.55C576.541 511.633 575.016 512.192 573.799 513.225C572.599 514.258 571.999 515.358 571.999 516.525C571.999 517.008 572.149 517.4 572.449 517.7C572.749 518 573.141 518.15 573.624 518.15C574.391 518.15 575.374 517.583 576.574 516.45ZM587.055 512.575C587.489 513.292 587.705 514.083 587.705 514.95C587.705 516.3 587.239 517.508 586.305 518.575C585.372 519.625 584.272 520.15 583.005 520.15C582.039 520.15 581.28 519.875 580.73 519.325C580.197 518.758 579.93 517.983 579.93 517C579.93 515.417 580.547 514 581.78 512.75C583.014 511.483 584.397 510.85 585.93 510.85C586.214 510.85 586.414 510.858 586.53 510.875L586.605 511.7C585.272 511.7 584.164 512.083 583.28 512.85C582.397 513.617 581.955 514.6 581.955 515.8C581.955 516.517 582.13 517.1 582.48 517.55C582.83 517.983 583.339 518.2 584.005 518.2C584.689 518.2 585.23 517.9 585.63 517.3C586.03 516.7 586.23 516 586.23 515.2C586.23 514.383 586.072 513.642 585.755 512.975L587.055 512.575ZM599.232 517.25L599.757 517.675C599.473 518.375 599.023 518.967 598.407 519.45C597.807 519.933 597.257 520.175 596.757 520.175C596.273 520.175 595.89 520.008 595.607 519.675C595.323 519.325 595.182 518.875 595.182 518.325C595.182 517.775 595.273 517.067 595.457 516.2C594.673 517.433 593.832 518.4 592.932 519.1C592.032 519.8 591.273 520.15 590.657 520.15C589.723 520.15 589.257 519.483 589.257 518.15C589.257 517.017 589.64 515.567 590.407 513.8C591.173 512.033 591.732 511.008 592.082 510.725L593.282 511.25C592.598 512.35 592.082 513.433 591.732 514.5C591.382 515.567 591.207 516.283 591.207 516.65C591.207 517 591.315 517.283 591.532 517.5C591.765 517.717 592.032 517.825 592.332 517.825C592.998 517.825 593.823 517.217 594.807 516C595.807 514.767 596.823 512.933 597.857 510.5L599.132 511.075C599.098 511.208 598.715 512.175 597.982 513.975C597.265 515.775 596.907 516.858 596.907 517.225C596.907 517.575 596.982 517.842 597.132 518.025C597.298 518.208 597.457 518.3 597.607 518.3C597.773 518.3 597.898 518.292 597.982 518.275C598.065 518.258 598.148 518.225 598.232 518.175C598.315 518.125 598.382 518.083 598.432 518.05C598.498 518.017 598.573 517.958 598.657 517.875L598.857 517.7C598.89 517.65 598.948 517.575 599.032 517.475C599.132 517.358 599.198 517.283 599.232 517.25ZM611.692 516.975L612.217 517.375C611.851 518.108 611.342 518.725 610.692 519.225C610.059 519.725 609.484 519.975 608.967 519.975C608.451 519.975 608.042 519.825 607.742 519.525C607.442 519.225 607.292 518.85 607.292 518.4C607.292 517.95 607.576 517.167 608.142 516.05C608.726 514.917 609.017 514.083 609.017 513.55C609.017 513.317 608.917 513.108 608.717 512.925C608.534 512.725 608.309 512.625 608.042 512.625C607.192 512.625 606.334 513.275 605.467 514.575C604.601 515.858 603.634 517.717 602.567 520.15L601.067 519.625C601.384 517.692 601.834 515.808 602.417 513.975C603.017 512.125 603.567 510.8 604.067 510L605.092 510.325C604.626 511.508 604.034 513.55 603.317 516.45C605.617 512.517 607.734 510.55 609.667 510.55C610.084 510.55 610.426 510.692 610.692 510.975C610.976 511.258 611.117 511.592 611.117 511.975C611.117 512.358 611.067 512.708 610.967 513.025C610.867 513.325 610.551 514.042 610.017 515.175C609.501 516.292 609.242 516.992 609.242 517.275C609.242 517.558 609.326 517.783 609.492 517.95C609.659 518.1 609.817 518.175 609.967 518.175C610.117 518.175 610.242 518.15 610.342 518.1C610.442 518.05 610.551 517.975 610.667 517.875C610.801 517.775 610.917 517.683 611.017 517.6C611.117 517.517 611.234 517.408 611.367 517.275C611.517 517.125 611.626 517.025 611.692 516.975ZM619.664 517.2L620.214 517.825C619.797 518.475 619.289 518.983 618.689 519.35C618.106 519.717 617.514 519.9 616.914 519.9C616.314 519.9 615.839 519.733 615.489 519.4C615.139 519.05 614.964 518.575 614.964 517.975C614.964 516.575 615.489 514.642 616.539 512.175C615.689 512.308 614.839 512.508 613.989 512.775L613.814 511.8L613.789 511.775C614.622 511.425 615.714 511.142 617.064 510.925C617.197 510.675 617.497 510.067 617.964 509.1C618.897 507.183 619.564 505.942 619.964 505.375L621.039 505.8C620.872 506.167 620.581 506.783 620.164 507.65C619.747 508.5 619.281 509.467 618.764 510.55C619.514 510.5 620.106 510.475 620.539 510.475C620.972 510.475 621.306 510.542 621.539 510.675V511.75C621.306 511.7 620.964 511.675 620.514 511.675C620.081 511.675 619.297 511.75 618.164 511.9C617.181 514.1 616.689 515.7 616.689 516.7C616.689 517.083 616.806 517.4 617.039 517.65C617.289 517.9 617.614 518.025 618.014 518.025C618.431 518.025 618.981 517.75 619.664 517.2ZM628.166 509.4C627.233 509.4 626.766 509.025 626.766 508.275C626.766 507.858 626.883 507.508 627.116 507.225C627.349 506.942 627.649 506.8 628.016 506.8C628.383 506.8 628.683 506.908 628.916 507.125C629.149 507.342 629.266 507.625 629.266 507.975C629.266 508.325 629.166 508.65 628.966 508.95C628.766 509.25 628.499 509.4 628.166 509.4ZM627.841 516.775L628.341 517.2C627.941 517.967 627.408 518.625 626.741 519.175C626.091 519.708 625.499 519.975 624.966 519.975C624.033 519.975 623.566 519.325 623.566 518.025C623.566 516.408 624.233 514.3 625.566 511.7C625.866 511.133 626.041 510.8 626.091 510.7L627.166 511.35C626.816 511.983 626.383 512.992 625.866 514.375C625.366 515.758 625.116 516.65 625.116 517.05C625.116 517.433 625.199 517.708 625.366 517.875C625.533 518.042 625.733 518.125 625.966 518.125C626.416 518.125 627.041 517.675 627.841 516.775ZM641.23 516.975L641.755 517.375C641.389 518.108 640.88 518.725 640.23 519.225C639.597 519.725 639.022 519.975 638.505 519.975C637.989 519.975 637.58 519.825 637.28 519.525C636.98 519.225 636.83 518.85 636.83 518.4C636.83 517.95 637.114 517.167 637.68 516.05C638.264 514.917 638.555 514.083 638.555 513.55C638.555 513.317 638.455 513.108 638.255 512.925C638.072 512.725 637.847 512.625 637.58 512.625C636.73 512.625 635.872 513.275 635.005 514.575C634.139 515.858 633.172 517.717 632.105 520.15L630.605 519.625C630.922 517.692 631.372 515.808 631.955 513.975C632.555 512.125 633.105 510.8 633.605 510L634.63 510.325C634.164 511.508 633.572 513.55 632.855 516.45C635.155 512.517 637.272 510.55 639.205 510.55C639.622 510.55 639.964 510.692 640.23 510.975C640.514 511.258 640.655 511.592 640.655 511.975C640.655 512.358 640.605 512.708 640.505 513.025C640.405 513.325 640.089 514.042 639.555 515.175C639.039 516.292 638.78 516.992 638.78 517.275C638.78 517.558 638.864 517.783 639.03 517.95C639.197 518.1 639.355 518.175 639.505 518.175C639.655 518.175 639.78 518.15 639.88 518.1C639.98 518.05 640.089 517.975 640.205 517.875C640.339 517.775 640.455 517.683 640.555 517.6C640.655 517.517 640.772 517.408 640.905 517.275C641.055 517.125 641.164 517.025 641.23 516.975ZM654.127 519.1L654.152 519.7C653.985 519.8 653.227 520.1 651.877 520.6C651.344 523.783 650.56 526.083 649.527 527.5C648.494 528.917 647.227 529.625 645.727 529.625C645.027 529.625 644.469 529.4 644.052 528.95C643.635 528.5 643.427 527.917 643.427 527.2C643.427 525.767 644.085 524.425 645.402 523.175C646.719 521.942 648.477 520.967 650.677 520.25C650.927 519.133 651.377 517.558 652.027 515.525C650.91 517.225 649.894 518.375 648.977 518.975C648.077 519.575 647.26 519.875 646.527 519.875C645.794 519.875 645.235 519.675 644.852 519.275C644.485 518.875 644.302 518.342 644.302 517.675C644.302 516.575 644.76 515.458 645.677 514.325C646.594 513.175 647.744 512.242 649.127 511.525C650.527 510.792 651.877 510.425 653.177 510.425L653.377 511.3C651.527 511.5 649.935 512.15 648.602 513.25C647.285 514.35 646.627 515.408 646.627 516.425C646.627 516.858 646.76 517.217 647.027 517.5C647.294 517.783 647.619 517.925 648.002 517.925C648.569 517.925 649.427 517.325 650.577 516.125C651.727 514.925 652.535 513.9 653.002 513.05L653.927 513.575C653.01 516.025 652.377 518.092 652.027 519.775L654.127 519.1ZM650.527 521C649.077 521.667 647.877 522.467 646.927 523.4C645.977 524.333 645.502 525.183 645.502 525.95C645.502 526.35 645.619 526.675 645.852 526.925C646.085 527.175 646.377 527.3 646.727 527.3C647.427 527.3 648.119 526.808 648.802 525.825C649.485 524.842 650.06 523.233 650.527 521Z" fill="white"/>
<path d="M312.252 60.28C313.372 58.9733 314.852 57.8267 316.692 56.84C318.532 55.8267 320.065 55.32 321.292 55.32C322.545 55.32 323.532 55.6533 324.252 56.32C324.972 56.9867 325.332 57.9333 325.332 59.16C325.332 60.3867 324.839 61.5067 323.852 62.52C322.865 63.5067 320.892 64.76 317.932 66.28C314.972 67.7733 312.225 69.6133 309.692 71.8C313.345 71.24 316.745 70.96 319.892 70.96C320.612 70.96 321.185 70.9867 321.612 71.04V73.56C321.025 73.6667 320.625 73.72 320.412 73.72C320.225 73.6933 319.905 73.6933 319.452 73.72C318.999 73.7467 318.119 73.8 316.812 73.88C315.505 73.9333 314.159 74.0267 312.772 74.16C311.412 74.2933 310.479 74.4 309.972 74.48C309.492 74.5333 309.199 74.56 309.092 74.56C308.665 74.56 308.292 74.2933 307.972 73.76C307.652 73.2 307.492 72.6667 307.492 72.16C307.705 71.3333 308.759 70.1333 310.652 68.56C312.572 66.9867 315.025 65.4267 318.012 63.88C318.892 63.4267 319.705 62.84 320.452 62.12C321.199 61.4 321.572 60.72 321.572 60.08C321.572 58.8533 320.919 58.24 319.612 58.24C317.879 58.24 315.652 59.36 312.932 61.6L312.252 60.28ZM338.815 55.32C340.309 55.32 341.495 55.7467 342.375 56.6C343.282 57.4533 343.735 58.6933 343.735 60.32C343.735 61.92 343.055 63.88 341.695 66.2C340.335 68.52 338.562 70.5467 336.375 72.28C334.215 73.9867 332.149 74.84 330.175 74.84C326.949 74.84 325.335 73.04 325.335 69.44C325.335 67.3333 326.002 65.1867 327.335 63C328.695 60.7867 330.429 58.96 332.535 57.52C334.669 56.0533 336.762 55.32 338.815 55.32ZM336.095 70.52C337.429 69.24 338.495 67.7067 339.295 65.92C340.122 64.1333 340.535 62.5733 340.535 61.24C340.535 59.88 340.229 58.8533 339.615 58.16C339.002 57.44 338.162 57.08 337.095 57.08C335.229 57.08 333.362 58.2933 331.495 60.72C329.655 63.12 328.735 65.5333 328.735 67.96C328.735 69.2667 329.042 70.3467 329.655 71.2C330.269 72.0267 331.162 72.44 332.335 72.44C333.535 72.44 334.789 71.8 336.095 70.52ZM348.861 60.28C349.981 58.9733 351.461 57.8267 353.301 56.84C355.141 55.8267 356.675 55.32 357.901 55.32C359.155 55.32 360.141 55.6533 360.861 56.32C361.581 56.9867 361.941 57.9333 361.941 59.16C361.941 60.3867 361.448 61.5067 360.461 62.52C359.475 63.5067 357.501 64.76 354.541 66.28C351.581 67.7733 348.835 69.6133 346.301 71.8C349.955 71.24 353.355 70.96 356.501 70.96C357.221 70.96 357.795 70.9867 358.221 71.04V73.56C357.635 73.6667 357.235 73.72 357.021 73.72C356.835 73.6933 356.515 73.6933 356.061 73.72C355.608 73.7467 354.728 73.8 353.421 73.88C352.115 73.9333 350.768 74.0267 349.381 74.16C348.021 74.2933 347.088 74.4 346.581 74.48C346.101 74.5333 345.808 74.56 345.701 74.56C345.275 74.56 344.901 74.2933 344.581 73.76C344.261 73.2 344.101 72.6667 344.101 72.16C344.315 71.3333 345.368 70.1333 347.261 68.56C349.181 66.9867 351.635 65.4267 354.621 63.88C355.501 63.4267 356.315 62.84 357.061 62.12C357.808 61.4 358.181 60.72 358.181 60.08C358.181 58.8533 357.528 58.24 356.221 58.24C354.488 58.24 352.261 59.36 349.541 61.6L348.861 60.28ZM366.385 60.28C367.505 58.9733 368.985 57.8267 370.825 56.84C372.665 55.8267 374.198 55.32 375.425 55.32C376.678 55.32 377.665 55.6533 378.385 56.32C379.105 56.9867 379.465 57.9333 379.465 59.16C379.465 60.3867 378.971 61.5067 377.985 62.52C376.998 63.5067 375.025 64.76 372.065 66.28C369.105 67.7733 366.358 69.6133 363.825 71.8C367.478 71.24 370.878 70.96 374.025 70.96C374.745 70.96 375.318 70.9867 375.745 71.04V73.56C375.158 73.6667 374.758 73.72 374.545 73.72C374.358 73.6933 374.038 73.6933 373.585 73.72C373.131 73.7467 372.251 73.8 370.945 73.88C369.638 73.9333 368.291 74.0267 366.905 74.16C365.545 74.2933 364.611 74.4 364.105 74.48C363.625 74.5333 363.331 74.56 363.225 74.56C362.798 74.56 362.425 74.2933 362.105 73.76C361.785 73.2 361.625 72.6667 361.625 72.16C361.838 71.3333 362.891 70.1333 364.785 68.56C366.705 66.9867 369.158 65.4267 372.145 63.88C373.025 63.4267 373.838 62.84 374.585 62.12C375.331 61.4 375.705 60.72 375.705 60.08C375.705 58.8533 375.051 58.24 373.745 58.24C372.011 58.24 369.785 59.36 367.065 61.6L366.385 60.28Z" fill="#CCCCCC"/>
<path d="M549.026 562.125L545.451 562.05C541.801 562.05 539.976 562.85 539.976 564.45C539.976 564.867 540.126 565.208 540.426 565.475C540.743 565.725 541.21 565.85 541.826 565.85C542.443 565.85 543.251 565.567 544.251 565L544.626 565.65C544.11 566.2 543.526 566.633 542.876 566.95C542.226 567.267 541.576 567.425 540.926 567.425C540.276 567.425 539.718 567.208 539.251 566.775C538.785 566.342 538.551 565.8 538.551 565.15C538.551 563.833 539.26 562.683 540.676 561.7C542.11 560.717 544.043 560.225 546.476 560.225C546.676 560.225 547.393 560.258 548.626 560.325C549.86 560.392 550.835 560.425 551.551 560.425C552.268 560.425 552.926 560.317 553.526 560.1C553.76 560.033 553.901 560 553.951 560C554.185 560 554.301 560.15 554.301 560.45C554.301 560.883 553.918 561.275 553.151 561.625C552.401 561.975 551.535 562.15 550.551 562.15C549.451 563.217 548.485 565.083 547.651 567.75C546.835 570.4 545.851 572.425 544.701 573.825C543.568 575.208 542.218 575.9 540.651 575.9C540.035 575.9 539.451 575.7 538.901 575.3L539.476 574.35C539.676 574.45 539.901 574.542 540.151 574.625L540.501 574.675C540.585 574.692 540.71 574.7 540.876 574.7C541.71 574.7 542.451 574.3 543.101 573.5C543.768 572.7 544.46 571.192 545.176 568.975C545.91 566.742 546.476 565.267 546.876 564.55C547.293 563.817 548.01 563.008 549.026 562.125ZM557.306 567.15C557.723 567.15 558.064 567.292 558.331 567.575C558.598 567.858 558.731 568.225 558.731 568.675C558.731 569.575 558.214 570.525 557.181 571.525L556.581 571.05C556.814 570.533 556.931 570.158 556.931 569.925C556.931 569.475 556.681 569.25 556.181 569.25C555.681 569.25 555.206 569.567 554.756 570.2C554.306 570.833 553.773 571.817 553.156 573.15C552.556 574.467 552.098 575.4 551.781 575.95L550.356 575.325C551.273 573.242 551.798 572.017 551.931 571.65C552.381 570.35 552.606 568.7 552.606 566.7L554.006 566.325C553.956 567.408 553.881 568.25 553.781 568.85C553.681 569.433 553.439 570.392 553.056 571.725C554.739 568.675 556.156 567.15 557.306 567.15ZM570.918 573.475L571.493 573.9C571.26 574.4 570.826 574.875 570.193 575.325C569.576 575.775 569.01 576 568.493 576C567.51 576 567.018 575.483 567.018 574.45C567.018 573.967 567.143 573.392 567.393 572.725L566.468 573.675C565.568 574.592 564.785 575.208 564.118 575.525C563.468 575.842 562.826 576 562.193 576C561.56 576 561.076 575.825 560.743 575.475C560.426 575.108 560.268 574.608 560.268 573.975C560.268 572.808 560.718 571.658 561.618 570.525C562.518 569.375 563.668 568.442 565.068 567.725C566.468 567.008 567.868 566.642 569.268 566.625L569.318 567.45L568.268 567.675C566.751 568.008 565.41 568.675 564.243 569.675C563.093 570.675 562.518 571.675 562.518 572.675C562.518 573.658 562.918 574.15 563.718 574.15C564.468 574.15 565.393 573.625 566.493 572.575C567.593 571.525 568.51 570.292 569.243 568.875L570.293 569.5C569.26 571.583 568.743 572.908 568.743 573.475C568.743 573.708 568.818 573.908 568.968 574.075C569.135 574.225 569.293 574.3 569.443 574.3C569.61 574.3 569.718 574.292 569.768 574.275C569.818 574.258 569.868 574.242 569.918 574.225C569.968 574.192 570.026 574.15 570.093 574.1C570.176 574.05 570.243 574 570.293 573.95C570.36 573.9 570.46 573.825 570.593 573.725C570.726 573.625 570.835 573.542 570.918 573.475ZM583.387 572.975L583.912 573.375C583.545 574.108 583.037 574.725 582.387 575.225C581.753 575.725 581.178 575.975 580.662 575.975C580.145 575.975 579.737 575.825 579.437 575.525C579.137 575.225 578.987 574.85 578.987 574.4C578.987 573.95 579.27 573.167 579.837 572.05C580.42 570.917 580.712 570.083 580.712 569.55C580.712 569.317 580.612 569.108 580.412 568.925C580.228 568.725 580.003 568.625 579.737 568.625C578.887 568.625 578.028 569.275 577.162 570.575C576.295 571.858 575.328 573.717 574.262 576.15L572.762 575.625C573.078 573.692 573.528 571.808 574.112 569.975C574.712 568.125 575.262 566.8 575.762 566L576.787 566.325C576.32 567.508 575.728 569.55 575.012 572.45C577.312 568.517 579.428 566.55 581.362 566.55C581.778 566.55 582.12 566.692 582.387 566.975C582.67 567.258 582.812 567.592 582.812 567.975C582.812 568.358 582.762 568.708 582.662 569.025C582.562 569.325 582.245 570.042 581.712 571.175C581.195 572.292 580.937 572.992 580.937 573.275C580.937 573.558 581.02 573.783 581.187 573.95C581.353 574.1 581.512 574.175 581.662 574.175C581.812 574.175 581.937 574.15 582.037 574.1C582.137 574.05 582.245 573.975 582.362 573.875C582.495 573.775 582.612 573.683 582.712 573.6C582.812 573.517 582.928 573.408 583.062 573.275C583.212 573.125 583.32 573.025 583.387 572.975ZM593.683 566.225L593.458 567.2C593.175 567.167 592.808 567.15 592.358 567.15C590.692 567.15 589.858 567.7 589.858 568.8C589.858 569.033 590.192 569.717 590.858 570.85C591.542 571.983 591.883 572.742 591.883 573.125C591.883 574.025 591.575 574.733 590.958 575.25C590.358 575.75 589.55 576 588.533 576C587.133 576 586.008 575.225 585.158 573.675L586.108 573C586.342 573.183 586.592 573.408 586.858 573.675C587.125 573.925 587.325 574.1 587.458 574.2C587.775 574.483 588.125 574.625 588.508 574.625C588.892 574.625 589.225 574.492 589.508 574.225C589.792 573.942 589.933 573.6 589.933 573.2C589.933 572.783 589.567 572.017 588.833 570.9C588.117 569.783 587.758 569 587.758 568.55C587.758 567.733 588.1 567.108 588.783 566.675C589.483 566.242 590.392 566.025 591.508 566.025C592.642 566.025 593.367 566.092 593.683 566.225ZM605.51 573.475L606.085 573.9C605.851 574.4 605.418 574.875 604.785 575.325C604.168 575.775 603.601 576 603.085 576C602.101 576 601.61 575.483 601.61 574.45C601.61 573.967 601.735 573.392 601.985 572.725L601.06 573.675C600.16 574.592 599.376 575.208 598.71 575.525C598.06 575.842 597.418 576 596.785 576C596.151 576 595.668 575.825 595.335 575.475C595.018 575.108 594.86 574.608 594.86 573.975C594.86 572.808 595.31 571.658 596.21 570.525C597.11 569.375 598.26 568.442 599.66 567.725C601.06 567.008 602.46 566.642 603.86 566.625L603.91 567.45L602.86 567.675C601.343 568.008 600.001 568.675 598.835 569.675C597.685 570.675 597.11 571.675 597.11 572.675C597.11 573.658 597.51 574.15 598.31 574.15C599.06 574.15 599.985 573.625 601.085 572.575C602.185 571.525 603.101 570.292 603.835 568.875L604.885 569.5C603.851 571.583 603.335 572.908 603.335 573.475C603.335 573.708 603.41 573.908 603.56 574.075C603.726 574.225 603.885 574.3 604.035 574.3C604.201 574.3 604.31 574.292 604.36 574.275C604.41 574.258 604.46 574.242 604.51 574.225C604.56 574.192 604.618 574.15 604.685 574.1C604.768 574.05 604.835 574 604.885 573.95C604.951 573.9 605.051 573.825 605.185 573.725C605.318 573.625 605.426 573.542 605.51 573.475ZM614.278 572.45L614.878 572.95C614.478 573.867 613.837 574.6 612.953 575.15C612.07 575.7 611.212 575.975 610.378 575.975C609.562 575.975 608.878 575.717 608.328 575.2C607.795 574.683 607.528 573.975 607.528 573.075C607.528 572.175 607.92 571.2 608.703 570.15C609.487 569.1 610.495 568.233 611.728 567.55C612.978 566.867 614.203 566.525 615.403 566.525C615.57 566.525 615.82 566.542 616.153 566.575L616.078 567.55C614.245 567.633 612.72 568.192 611.503 569.225C610.303 570.258 609.703 571.358 609.703 572.525C609.703 573.008 609.853 573.4 610.153 573.7C610.453 574 610.845 574.15 611.328 574.15C612.095 574.15 613.078 573.583 614.278 572.45ZM623.484 573.2L624.034 573.825C623.618 574.475 623.109 574.983 622.509 575.35C621.926 575.717 621.334 575.9 620.734 575.9C620.134 575.9 619.659 575.733 619.309 575.4C618.959 575.05 618.784 574.575 618.784 573.975C618.784 572.575 619.309 570.642 620.359 568.175C619.509 568.308 618.659 568.508 617.809 568.775L617.634 567.8L617.609 567.775C618.443 567.425 619.534 567.142 620.884 566.925C621.018 566.675 621.318 566.067 621.784 565.1C622.718 563.183 623.384 561.942 623.784 561.375L624.859 561.8C624.693 562.167 624.401 562.783 623.984 563.65C623.568 564.5 623.101 565.467 622.584 566.55C623.334 566.5 623.926 566.475 624.359 566.475C624.793 566.475 625.126 566.542 625.359 566.675V567.75C625.126 567.7 624.784 567.675 624.334 567.675C623.901 567.675 623.118 567.75 621.984 567.9C621.001 570.1 620.509 571.7 620.509 572.7C620.509 573.083 620.626 573.4 620.859 573.65C621.109 573.9 621.434 574.025 621.834 574.025C622.251 574.025 622.801 573.75 623.484 573.2ZM631.986 565.4C631.053 565.4 630.586 565.025 630.586 564.275C630.586 563.858 630.703 563.508 630.936 563.225C631.17 562.942 631.47 562.8 631.836 562.8C632.203 562.8 632.503 562.908 632.736 563.125C632.97 563.342 633.086 563.625 633.086 563.975C633.086 564.325 632.986 564.65 632.786 564.95C632.586 565.25 632.32 565.4 631.986 565.4ZM631.661 572.775L632.161 573.2C631.761 573.967 631.228 574.625 630.561 575.175C629.911 575.708 629.32 575.975 628.786 575.975C627.853 575.975 627.386 575.325 627.386 574.025C627.386 572.408 628.053 570.3 629.386 567.7C629.686 567.133 629.861 566.8 629.911 566.7L630.986 567.35C630.636 567.983 630.203 568.992 629.686 570.375C629.186 571.758 628.936 572.65 628.936 573.05C628.936 573.433 629.02 573.708 629.186 573.875C629.353 574.042 629.553 574.125 629.786 574.125C630.236 574.125 630.861 573.675 631.661 572.775ZM641.701 568.575C642.134 569.292 642.351 570.083 642.351 570.95C642.351 572.3 641.884 573.508 640.951 574.575C640.017 575.625 638.917 576.15 637.651 576.15C636.684 576.15 635.926 575.875 635.376 575.325C634.842 574.758 634.576 573.983 634.576 573C634.576 571.417 635.192 570 636.426 568.75C637.659 567.483 639.042 566.85 640.576 566.85C640.859 566.85 641.059 566.858 641.176 566.875L641.251 567.7C639.917 567.7 638.809 568.083 637.926 568.85C637.042 569.617 636.601 570.6 636.601 571.8C636.601 572.517 636.776 573.1 637.126 573.55C637.476 573.983 637.984 574.2 638.651 574.2C639.334 574.2 639.876 573.9 640.276 573.3C640.676 572.7 640.876 572 640.876 571.2C640.876 570.383 640.717 569.642 640.401 568.975L641.701 568.575ZM654.327 572.975L654.852 573.375C654.485 574.108 653.977 574.725 653.327 575.225C652.694 575.725 652.119 575.975 651.602 575.975C651.085 575.975 650.677 575.825 650.377 575.525C650.077 575.225 649.927 574.85 649.927 574.4C649.927 573.95 650.21 573.167 650.777 572.05C651.36 570.917 651.652 570.083 651.652 569.55C651.652 569.317 651.552 569.108 651.352 568.925C651.169 568.725 650.944 568.625 650.677 568.625C649.827 568.625 648.969 569.275 648.102 570.575C647.235 571.858 646.269 573.717 645.202 576.15L643.702 575.625C644.019 573.692 644.469 571.808 645.052 569.975C645.652 568.125 646.202 566.8 646.702 566L647.727 566.325C647.26 567.508 646.669 569.55 645.952 572.45C648.252 568.517 650.369 566.55 652.302 566.55C652.719 566.55 653.06 566.692 653.327 566.975C653.61 567.258 653.752 567.592 653.752 567.975C653.752 568.358 653.702 568.708 653.602 569.025C653.502 569.325 653.185 570.042 652.652 571.175C652.135 572.292 651.877 572.992 651.877 573.275C651.877 573.558 651.96 573.783 652.127 573.95C652.294 574.1 652.452 574.175 652.602 574.175C652.752 574.175 652.877 574.15 652.977 574.1C653.077 574.05 653.185 573.975 653.302 573.875C653.435 573.775 653.552 573.683 653.652 573.6C653.752 573.517 653.869 573.408 654.002 573.275C654.152 573.125 654.26 573.025 654.327 572.975Z" fill="white"/>
<path d="M560.802 622.6C561.085 622.683 561.227 622.833 561.227 623.05C561.227 623.117 561.127 623.267 560.927 623.5C560.16 624.483 559.618 625.217 559.302 625.7C559.002 626.183 558.635 626.992 558.202 628.125C557.785 629.258 557.402 630.35 557.052 631.4C556.718 632.433 556.552 632.958 556.552 632.975C555.868 634.508 554.927 635.717 553.727 636.6C552.527 637.483 551.268 637.925 549.952 637.925C549.018 637.925 548.26 637.7 547.677 637.25C547.11 636.783 546.827 636.167 546.827 635.4C546.827 634.2 547.602 633.1 549.152 632.1C550.702 631.1 552.252 630.6 553.802 630.6L553.902 631.425C552.668 631.675 551.602 632.133 550.702 632.8C549.818 633.467 549.377 634.192 549.377 634.975C549.377 635.475 549.518 635.883 549.802 636.2C550.102 636.517 550.477 636.675 550.927 636.675C551.777 636.675 552.51 636.283 553.127 635.5C553.743 634.7 554.368 633.292 555.002 631.275C555.652 629.258 556.235 627.783 556.752 626.85C557.285 625.917 557.952 625.133 558.752 624.5C558.518 624.483 558.26 624.475 557.977 624.475C556.543 624.475 555.143 624.7 553.777 625.15C552.427 625.6 551.752 626.2 551.752 626.95C551.752 627.417 551.96 627.858 552.377 628.275L551.827 628.95C550.71 628.167 550.152 627.258 550.152 626.225C550.152 625.542 550.443 624.95 551.027 624.45C551.627 623.95 552.427 623.567 553.427 623.3C555.343 622.783 557.493 622.525 559.877 622.525C560.393 622.525 560.702 622.55 560.802 622.6ZM572.45 634.975L572.975 635.375C572.608 636.108 572.1 636.725 571.45 637.225C570.817 637.725 570.242 637.975 569.725 637.975C569.208 637.975 568.8 637.825 568.5 637.525C568.2 637.225 568.05 636.85 568.05 636.4C568.05 635.95 568.333 635.167 568.9 634.05C569.483 632.917 569.775 632.083 569.775 631.55C569.775 631.317 569.675 631.108 569.475 630.925C569.292 630.725 569.067 630.625 568.8 630.625C567.95 630.625 567.092 631.275 566.225 632.575C565.358 633.858 564.392 635.717 563.325 638.15L561.825 637.625C562.142 635.692 562.592 633.808 563.175 631.975C563.775 630.125 564.325 628.8 564.825 628L565.85 628.325C565.383 629.508 564.792 631.55 564.075 634.45C566.375 630.517 568.492 628.55 570.425 628.55C570.842 628.55 571.183 628.692 571.45 628.975C571.733 629.258 571.875 629.592 571.875 629.975C571.875 630.358 571.825 630.708 571.725 631.025C571.625 631.325 571.308 632.042 570.775 633.175C570.258 634.292 570 634.992 570 635.275C570 635.558 570.083 635.783 570.25 635.95C570.417 636.1 570.575 636.175 570.725 636.175C570.875 636.175 571 636.15 571.1 636.1C571.2 636.05 571.308 635.975 571.425 635.875C571.558 635.775 571.675 635.683 571.775 635.6C571.875 635.517 571.992 635.408 572.125 635.275C572.275 635.125 572.383 635.025 572.45 634.975ZM582.747 629.05L583.597 629.725C581.38 632.642 579.88 635.075 579.097 637.025C578.83 637.675 578.447 638 577.947 638C577.63 638 577.347 637.833 577.097 637.5C576.863 637.167 576.705 636.867 576.622 636.6C576.555 636.317 576.438 635.733 576.272 634.85C576.105 633.967 575.922 633.05 575.722 632.1C575.522 631.133 575.355 630.417 575.222 629.95C575.105 629.467 575.022 629.15 574.972 629C574.938 628.85 574.872 628.725 574.772 628.625C574.672 628.508 574.613 628.433 574.597 628.4L576.222 628.55C576.705 629.733 577.088 631.017 577.372 632.4C577.438 632.683 577.555 633.258 577.722 634.125C577.888 634.975 578.022 635.642 578.122 636.125C579.038 634.358 579.838 632.925 580.522 631.825C581.222 630.708 581.963 629.783 582.747 629.05ZM592.069 635.05L592.644 635.5C592.127 636.217 591.419 636.817 590.519 637.3C589.619 637.767 588.744 638 587.894 638C587.044 638 586.361 637.75 585.844 637.25C585.327 636.75 585.069 636.092 585.069 635.275C585.069 633.742 585.877 632.233 587.494 630.75C589.127 629.267 590.777 628.525 592.444 628.525C593.544 628.525 594.094 628.958 594.094 629.825C594.094 630.725 593.511 631.633 592.344 632.55C591.194 633.467 589.569 634.3 587.469 635.05C587.619 635.433 587.852 635.733 588.169 635.95C588.486 636.167 588.811 636.275 589.144 636.275C589.861 636.275 590.836 635.867 592.069 635.05ZM587.344 634.3C588.694 633.833 589.852 633.25 590.819 632.55C591.786 631.85 592.269 631.208 592.269 630.625C592.269 630.408 592.186 630.217 592.019 630.05C591.852 629.883 591.661 629.8 591.444 629.8C590.661 629.8 589.811 630.292 588.894 631.275C587.994 632.242 587.477 633.25 587.344 634.3ZM606.065 634.975L606.59 635.375C606.224 636.108 605.715 636.725 605.065 637.225C604.432 637.725 603.857 637.975 603.34 637.975C602.824 637.975 602.415 637.825 602.115 637.525C601.815 637.225 601.665 636.85 601.665 636.4C601.665 635.95 601.949 635.167 602.515 634.05C603.099 632.917 603.39 632.083 603.39 631.55C603.39 631.317 603.29 631.108 603.09 630.925C602.907 630.725 602.682 630.625 602.415 630.625C601.565 630.625 600.707 631.275 599.84 632.575C598.974 633.858 598.007 635.717 596.94 638.15L595.44 637.625C595.757 635.692 596.207 633.808 596.79 631.975C597.39 630.125 597.94 628.8 598.44 628L599.465 628.325C598.999 629.508 598.407 631.55 597.69 634.45C599.99 630.517 602.107 628.55 604.04 628.55C604.457 628.55 604.799 628.692 605.065 628.975C605.349 629.258 605.49 629.592 605.49 629.975C605.49 630.358 605.44 630.708 605.34 631.025C605.24 631.325 604.924 632.042 604.39 633.175C603.874 634.292 603.615 634.992 603.615 635.275C603.615 635.558 603.699 635.783 603.865 635.95C604.032 636.1 604.19 636.175 604.34 636.175C604.49 636.175 604.615 636.15 604.715 636.1C604.815 636.05 604.924 635.975 605.04 635.875C605.174 635.775 605.29 635.683 605.39 635.6C605.49 635.517 605.607 635.408 605.74 635.275C605.89 635.125 605.999 635.025 606.065 634.975ZM614.037 635.2L614.587 635.825C614.17 636.475 613.662 636.983 613.062 637.35C612.479 637.717 611.887 637.9 611.287 637.9C610.687 637.9 610.212 637.733 609.862 637.4C609.512 637.05 609.337 636.575 609.337 635.975C609.337 634.575 609.862 632.642 610.912 630.175C610.062 630.308 609.212 630.508 608.362 630.775L608.187 629.8L608.162 629.775C608.995 629.425 610.087 629.142 611.437 628.925C611.57 628.675 611.87 628.067 612.337 627.1C613.27 625.183 613.937 623.942 614.337 623.375L615.412 623.8C615.245 624.167 614.954 624.783 614.537 625.65C614.12 626.5 613.654 627.467 613.137 628.55C613.887 628.5 614.479 628.475 614.912 628.475C615.345 628.475 615.679 628.542 615.912 628.675V629.75C615.679 629.7 615.337 629.675 614.887 629.675C614.454 629.675 613.67 629.75 612.537 629.9C611.554 632.1 611.062 633.7 611.062 634.7C611.062 635.083 611.179 635.4 611.412 635.65C611.662 635.9 611.987 636.025 612.387 636.025C612.804 636.025 613.354 635.75 614.037 635.2ZM624.564 630.575C624.997 631.292 625.214 632.083 625.214 632.95C625.214 634.3 624.747 635.508 623.814 636.575C622.881 637.625 621.781 638.15 620.514 638.15C619.547 638.15 618.789 637.875 618.239 637.325C617.706 636.758 617.439 635.983 617.439 635C617.439 633.417 618.056 632 619.289 630.75C620.522 629.483 621.906 628.85 623.439 628.85C623.722 628.85 623.922 628.858 624.039 628.875L624.114 629.7C622.781 629.7 621.672 630.083 620.789 630.85C619.906 631.617 619.464 632.6 619.464 633.8C619.464 634.517 619.639 635.1 619.989 635.55C620.339 635.983 620.847 636.2 621.514 636.2C622.197 636.2 622.739 635.9 623.139 635.3C623.539 634.7 623.739 634 623.739 633.2C623.739 632.383 623.581 631.642 623.264 630.975L624.564 630.575ZM633.715 629.15C634.132 629.15 634.474 629.292 634.74 629.575C635.007 629.858 635.14 630.225 635.14 630.675C635.14 631.575 634.624 632.525 633.59 633.525L632.99 633.05C633.224 632.533 633.34 632.158 633.34 631.925C633.34 631.475 633.09 631.25 632.59 631.25C632.09 631.25 631.615 631.567 631.165 632.2C630.715 632.833 630.182 633.817 629.565 635.15C628.965 636.467 628.507 637.4 628.19 637.95L626.765 637.325C627.682 635.242 628.207 634.017 628.34 633.65C628.79 632.35 629.015 630.7 629.015 628.7L630.415 628.325C630.365 629.408 630.29 630.25 630.19 630.85C630.09 631.433 629.849 632.392 629.465 633.725C631.149 630.675 632.565 629.15 633.715 629.15ZM646.169 636.425L646.244 637.075C646.177 637.125 645.402 637.425 643.919 637.975C643.719 639.075 643.461 640.158 643.144 641.225C642.844 642.308 642.536 643.125 642.219 643.675C641.919 644.242 641.561 644.8 641.144 645.35C640.311 646.45 639.186 647 637.769 647C637.069 647 636.511 646.783 636.094 646.35C635.677 645.917 635.469 645.325 635.469 644.575C635.469 641.692 637.886 639.375 642.719 637.625L644.069 632.875C642.636 635.025 641.344 636.35 640.194 636.85C639.627 637.117 639.027 637.25 638.394 637.25C637.777 637.25 637.277 637.05 636.894 636.65C636.527 636.25 636.344 635.667 636.344 634.9C636.344 634.133 636.602 633.067 637.119 631.7C637.652 630.317 638.244 629.158 638.894 628.225L640.119 628.75C640.069 628.8 639.836 629.242 639.419 630.075C638.686 631.592 638.319 632.717 638.319 633.45C638.319 634.183 638.461 634.675 638.744 634.925C639.027 635.175 639.444 635.3 639.994 635.3C640.544 635.3 641.161 634.975 641.844 634.325C642.544 633.658 643.619 632.35 645.069 630.4L645.969 630.925C645.836 631.475 645.536 632.475 645.069 633.925C644.619 635.358 644.311 636.458 644.144 637.225L646.169 636.425ZM642.569 638.375C641.519 638.858 640.594 639.408 639.794 640.025C638.294 641.158 637.544 642.258 637.544 643.325C637.544 643.725 637.661 644.05 637.894 644.3C638.127 644.55 638.419 644.675 638.769 644.675C640.436 644.675 641.702 642.575 642.569 638.375Z" fill="white"/>
<path d="M562.881 679.65C562.881 680.483 562.481 681.225 561.681 681.875C560.898 682.525 559.99 683 558.956 683.3C557.94 683.6 556.956 683.75 556.006 683.75C555.756 683.75 555.573 683.742 555.456 683.725V682.875C555.49 682.875 555.973 682.8 556.906 682.65C557.84 682.483 558.623 682.2 559.256 681.8C559.906 681.4 560.231 680.95 560.231 680.45C560.231 679.85 559.781 679.55 558.881 679.55C557.665 679.55 556.515 679.967 555.431 680.8C554.348 681.633 553.806 682.508 553.806 683.425C553.806 684.342 554.373 684.933 555.506 685.2C555.756 685.267 555.923 685.333 556.006 685.4C556.09 685.467 556.131 685.583 556.131 685.75C556.131 685.917 556.048 686.058 555.881 686.175C555.731 686.275 555.373 686.425 554.806 686.625C551.74 687.675 550.206 689.308 550.206 691.525C550.206 691.975 550.29 692.358 550.456 692.675C551.473 691.375 552.79 690.317 554.406 689.5C556.023 688.683 557.581 688.275 559.081 688.275C559.865 688.275 560.49 688.45 560.956 688.8C561.423 689.133 561.656 689.6 561.656 690.2C561.656 691.133 561.223 692.067 560.356 693C559.49 693.933 558.365 694.692 556.981 695.275C555.615 695.875 554.248 696.175 552.881 696.175C551.531 696.175 550.465 695.925 549.681 695.425C549.665 695.442 549.59 695.567 549.456 695.8C549.123 696.467 548.84 696.933 548.606 697.2L547.781 696.85C547.898 696.383 548.24 695.675 548.806 694.725C548.04 693.858 547.656 692.892 547.656 691.825C547.656 690.742 548.09 689.717 548.956 688.75C549.84 687.767 551.065 686.958 552.631 686.325C551.848 685.675 551.456 685 551.456 684.3C551.456 683.35 551.956 682.383 552.956 681.4C553.956 680.4 555.173 679.592 556.606 678.975C558.056 678.358 559.415 678.05 560.681 678.05C561.348 678.05 561.881 678.2 562.281 678.5C562.681 678.783 562.881 679.167 562.881 679.65ZM557.631 689.775C556.648 689.775 555.498 690.15 554.181 690.9C552.881 691.65 551.823 692.542 551.006 693.575C551.673 694.325 552.615 694.7 553.831 694.7C555.065 694.7 556.265 694.308 557.431 693.525C558.615 692.725 559.206 691.867 559.206 690.95C559.206 690.583 559.065 690.3 558.781 690.1C558.498 689.883 558.115 689.775 557.631 689.775ZM581.805 690.75L582.33 691.25C581.38 692.95 580.288 693.8 579.055 693.8C578.555 693.8 578.163 693.667 577.88 693.4C577.613 693.117 577.48 692.75 577.48 692.3C577.48 691.833 577.755 691.042 578.305 689.925C578.855 688.808 579.147 687.958 579.18 687.375C579.197 687.108 579.113 686.892 578.93 686.725C578.763 686.558 578.53 686.475 578.23 686.475C577.93 686.475 577.622 686.55 577.305 686.7C577.005 686.833 576.705 687.058 576.405 687.375C576.122 687.692 575.855 688 575.605 688.3C575.372 688.6 575.105 689.025 574.805 689.575C574.522 690.125 574.28 690.583 574.08 690.95C573.73 691.633 573.23 692.658 572.58 694.025L571.08 693.5C571.08 693.45 571.355 692.508 571.905 690.675C572.455 688.842 572.73 687.75 572.73 687.4C572.73 687.05 572.647 686.8 572.48 686.65C572.313 686.483 572.105 686.4 571.855 686.4C571.105 686.4 570.063 687.333 568.73 689.2C567.413 691.067 566.572 692.658 566.205 693.975L564.78 693.5C564.863 692.617 565.255 691.033 565.955 688.75C566.655 686.45 567.247 684.883 567.73 684.05L568.855 684.45C568.338 685.6 567.98 686.575 567.78 687.375C567.58 688.158 567.405 689 567.255 689.9C568.688 687.85 569.888 686.417 570.855 685.6C571.822 684.767 572.697 684.35 573.48 684.35C574.33 684.35 574.755 684.775 574.755 685.625C574.755 685.958 574.605 686.617 574.305 687.6C574.022 688.583 573.797 689.358 573.63 689.925C575.93 686.225 577.988 684.375 579.805 684.375C580.255 684.375 580.613 684.517 580.88 684.8C581.147 685.067 581.28 685.475 581.28 686.025C581.28 686.558 580.963 687.45 580.33 688.7C579.713 689.95 579.405 690.742 579.405 691.075C579.405 691.392 579.472 691.625 579.605 691.775C579.738 691.925 579.905 692 580.105 692C580.538 692 581.105 691.583 581.805 690.75ZM587.647 689.4C588.914 687.5 590.014 686.208 590.947 685.525C591.88 684.825 592.697 684.475 593.397 684.475C594.097 684.475 594.639 684.692 595.022 685.125C595.405 685.542 595.597 686.075 595.597 686.725C595.597 688.525 594.947 690.192 593.647 691.725C592.364 693.242 590.914 694 589.297 694C588.58 694 588.014 693.875 587.597 693.625L588.197 692.55C589.064 692.667 589.605 692.725 589.822 692.725C590.722 692.725 591.564 692.2 592.347 691.15C593.13 690.1 593.522 689.025 593.522 687.925C593.522 687.508 593.397 687.167 593.147 686.9C592.914 686.617 592.605 686.475 592.222 686.475C591.305 686.475 590.264 687.283 589.097 688.9C587.947 690.517 586.864 692.517 585.847 694.9C584.847 697.3 583.972 699.85 583.222 702.55L581.722 702.025C581.755 701.925 582.072 701.058 582.672 699.425C583.255 697.808 583.83 696.2 584.397 694.6C585.964 690.2 586.747 687.792 586.747 687.375C586.747 686.308 586.53 685.342 586.097 684.475L587.347 683.85C587.864 684.567 588.122 685.325 588.122 686.125C588.122 686.908 587.964 688 587.647 689.4ZM601.2 691.6L601.725 692.025C601.158 692.908 600.666 693.55 600.25 693.95C599.85 694.333 599.4 694.525 598.9 694.525C598.4 694.525 597.991 694.325 597.675 693.925C597.358 693.525 597.2 693.025 597.2 692.425C597.2 691.258 597.966 688.75 599.5 684.9C601.033 681.033 602.608 677.633 604.225 674.7L605.325 675.3C603.691 678.467 602.216 681.617 600.9 684.75C599.583 687.867 598.925 690.108 598.925 691.475C598.925 692.258 599.216 692.65 599.8 692.65C600.266 692.65 600.733 692.3 601.2 691.6ZM612.212 686.575C612.645 687.292 612.862 688.083 612.862 688.95C612.862 690.3 612.395 691.508 611.462 692.575C610.529 693.625 609.429 694.15 608.162 694.15C607.195 694.15 606.437 693.875 605.887 693.325C605.354 692.758 605.087 691.983 605.087 691C605.087 689.417 605.704 688 606.937 686.75C608.17 685.483 609.554 684.85 611.087 684.85C611.37 684.85 611.57 684.858 611.687 684.875L611.762 685.7C610.429 685.7 609.32 686.083 608.437 686.85C607.554 687.617 607.112 688.6 607.112 689.8C607.112 690.517 607.287 691.1 607.637 691.55C607.987 691.983 608.495 692.2 609.162 692.2C609.845 692.2 610.387 691.9 610.787 691.3C611.187 690.7 611.387 690 611.387 689.2C611.387 688.383 611.229 687.642 610.912 686.975L612.212 686.575ZM624.638 692.425L624.713 693.075C624.647 693.125 623.872 693.425 622.388 693.975C622.188 695.075 621.93 696.158 621.613 697.225C621.313 698.308 621.005 699.125 620.688 699.675C620.388 700.242 620.03 700.8 619.613 701.35C618.78 702.45 617.655 703 616.238 703C615.538 703 614.98 702.783 614.563 702.35C614.147 701.917 613.938 701.325 613.938 700.575C613.938 697.692 616.355 695.375 621.188 693.625L622.538 688.875C621.105 691.025 619.813 692.35 618.663 692.85C618.097 693.117 617.497 693.25 616.863 693.25C616.247 693.25 615.747 693.05 615.363 692.65C614.997 692.25 614.813 691.667 614.813 690.9C614.813 690.133 615.072 689.067 615.588 687.7C616.122 686.317 616.713 685.158 617.363 684.225L618.588 684.75C618.538 684.8 618.305 685.242 617.888 686.075C617.155 687.592 616.788 688.717 616.788 689.45C616.788 690.183 616.93 690.675 617.213 690.925C617.497 691.175 617.913 691.3 618.463 691.3C619.013 691.3 619.63 690.975 620.313 690.325C621.013 689.658 622.088 688.35 623.538 686.4L624.438 686.925C624.305 687.475 624.005 688.475 623.538 689.925C623.088 691.358 622.78 692.458 622.613 693.225L624.638 692.425ZM621.038 694.375C619.988 694.858 619.063 695.408 618.263 696.025C616.763 697.158 616.013 698.258 616.013 699.325C616.013 699.725 616.13 700.05 616.363 700.3C616.597 700.55 616.888 700.675 617.238 700.675C618.905 700.675 620.172 698.575 621.038 694.375ZM633.301 691.05L633.876 691.5C633.359 692.217 632.651 692.817 631.751 693.3C630.851 693.767 629.976 694 629.126 694C628.276 694 627.592 693.75 627.076 693.25C626.559 692.75 626.301 692.092 626.301 691.275C626.301 689.742 627.109 688.233 628.726 686.75C630.359 685.267 632.009 684.525 633.676 684.525C634.776 684.525 635.326 684.958 635.326 685.825C635.326 686.725 634.742 687.633 633.576 688.55C632.426 689.467 630.801 690.3 628.701 691.05C628.851 691.433 629.084 691.733 629.401 691.95C629.717 692.167 630.042 692.275 630.376 692.275C631.092 692.275 632.067 691.867 633.301 691.05ZM628.576 690.3C629.926 689.833 631.084 689.25 632.051 688.55C633.017 687.85 633.501 687.208 633.501 686.625C633.501 686.408 633.417 686.217 633.251 686.05C633.084 685.883 632.892 685.8 632.676 685.8C631.892 685.8 631.042 686.292 630.126 687.275C629.226 688.242 628.709 689.25 628.576 690.3ZM643.822 691.05L644.397 691.5C643.881 692.217 643.172 692.817 642.272 693.3C641.372 693.767 640.497 694 639.647 694C638.797 694 638.114 693.75 637.597 693.25C637.081 692.75 636.822 692.092 636.822 691.275C636.822 689.742 637.631 688.233 639.247 686.75C640.881 685.267 642.531 684.525 644.197 684.525C645.297 684.525 645.847 684.958 645.847 685.825C645.847 686.725 645.264 687.633 644.097 688.55C642.947 689.467 641.322 690.3 639.222 691.05C639.372 691.433 639.606 691.733 639.922 691.95C640.239 692.167 640.564 692.275 640.897 692.275C641.614 692.275 642.589 691.867 643.822 691.05ZM639.097 690.3C640.447 689.833 641.606 689.25 642.572 688.55C643.539 687.85 644.022 687.208 644.022 686.625C644.022 686.408 643.939 686.217 643.772 686.05C643.606 685.883 643.414 685.8 643.197 685.8C642.414 685.8 641.564 686.292 640.647 687.275C639.747 688.242 639.231 689.25 639.097 690.3Z" fill="white"/>
</g>
<defs>
<clipPath id="clip0_2084_2041">
<rect width="882.346" height="778.999" fill="white"/>
</clipPath>
</defs>
</svg>
