<svg width="2471" height="532" viewBox="0 0 2471 532" fill="none" xmlns="http://www.w3.org/2000/svg">
<path fill-rule="evenodd" clip-rule="evenodd" d="M1005.37 481.176C998.903 491.077 976.256 524.08 913.498 517.478C907.889 507.359 905.087 495.039 905.087 480.517C905.087 474.797 905.299 470.396 905.735 467.316C870.796 510.439 831.331 532 787.335 532C762.749 532 740.318 525.399 720.046 512.2C699.774 498.998 683.601 479.856 671.523 454.775C659.876 429.693 654.053 400.211 654.053 366.328C654.053 329.282 660.12 291.842 672.253 254.01C467.987 294.712 200.105 323.321 0 300.199C212.864 307.15 479.225 282.467 678.368 236.286C683.146 223.356 688.626 210.377 694.813 197.354C722.419 140.151 757.357 93.0662 799.625 56.1051C842.328 18.703 884.815 0 927.083 0C953.397 0 972.806 7.48144 985.311 22.4418C1032.27 76.9652 985.549 157.194 929.685 182.475C889.229 200.464 823.838 220.224 743.873 238.657C725.398 287.077 716.163 332.053 716.163 373.587C716.163 399.549 720.044 422.211 727.807 441.571C735.57 460.494 745.924 475.015 758.863 485.136C772.236 495.257 786.898 500.315 802.859 500.315C825.29 500.315 845.774 490.855 864.322 471.933C883.3 452.572 898.613 428.371 910.26 399.328C921.904 370.285 929.023 341.244 931.61 312.202C910.473 307.801 887.401 305.601 862.383 305.601C854.619 305.601 836.528 300.101 815.824 300.981C815.824 285.14 822.294 271.28 822.294 271.28C822.294 271.28 857.638 262.039 871.44 262.039C881.792 262.039 892.358 263.578 903.142 266.659C913.928 269.299 927.514 273.479 943.903 279.2C962.02 286.24 977.546 291.079 990.487 293.722C971.512 353.567 959.431 393.609 954.254 413.851C949.512 433.651 947.138 453.674 947.138 473.915L953.608 491.076C967.867 489.095 1008.6 461.374 1005.37 481.175L1005.37 481.176ZM959.586 105.622C971.167 78.879 974.857 52.853 958.789 37.6227C953.18 31.9029 944.554 29.0437 932.907 29.0437C901.419 29.0437 868.641 47.9634 834.566 85.8079C802.292 121.687 774.982 165.462 752.632 217.13C859.513 186.401 936.993 148.521 959.586 105.622ZM1777.7 502.956C1747.51 502.956 1725.08 493.935 1710.42 475.894C1700.61 463.767 1694.18 449.967 1691.13 434.494C1684.76 442.72 1678 450.138 1670.86 456.752C1647.57 478.313 1622.55 489.096 1595.81 489.096C1577.69 489.096 1563.67 483.596 1553.75 472.593C1543.83 461.595 1538.87 447.512 1538.87 430.351C1538.87 428.024 1538.96 425.583 1539.12 423.042L1537.4 425.07C1521.87 443.111 1504.4 457.852 1484.99 469.296C1466.01 480.736 1447.24 486.456 1428.7 486.456C1412.74 486.456 1399.8 482.056 1389.88 473.255C1379.96 464.895 1375 453.454 1375 438.934C1375 430.572 1376.51 421.551 1379.53 411.871C1382.98 401.75 1387.94 389.649 1394.41 375.569C1400.01 363.247 1404.33 352.908 1407.35 344.546C1410.37 335.745 1411.88 328.045 1411.88 321.445C1411.88 304.723 1401.1 290.643 1379.53 279.203C1370.9 301.203 1360.77 323.426 1349.12 345.865C1340.48 363.156 1332.48 378.356 1325.12 391.467C1311.43 417.209 1295.42 438.756 1277.09 456.094C1253.36 478.095 1229.42 489.096 1205.27 489.096C1188.01 489.096 1174.65 483.156 1165.16 471.274C1156.1 459.833 1151.57 446.632 1151.57 431.672C1132.16 455.433 1115.55 472.816 1101.75 483.815C1087.95 494.816 1073.28 500.318 1057.75 500.318C1042.66 500.318 1030.15 495.256 1020.23 485.138C1009.88 475.014 1004.7 460.715 1004.7 442.234C1004.7 416.711 1013.76 388.11 1031.88 356.428C1050.43 324.745 1073.93 297.903 1102.4 275.902C1130.86 253.899 1159.33 242.898 1187.8 242.898C1206.78 242.898 1222.52 247.96 1235.03 258.08C1247.97 267.759 1254.44 280.3 1254.44 295.703C1254.44 315.944 1242.15 326.504 1217.56 327.385C1233.09 332.225 1240.85 338.826 1240.85 347.188C1240.85 350.267 1239.35 354.886 1236.32 361.048C1233.3 367.208 1229.85 373.589 1225.97 380.19C1219.07 391.631 1213.68 401.751 1209.8 410.553C1205.92 418.913 1203.97 426.833 1203.97 434.314C1203.97 440.912 1205.48 446.633 1208.5 451.475C1211.95 455.875 1216.91 458.075 1223.38 458.075C1235.46 458.075 1250.77 449.494 1269.32 432.333C1285.1 418.066 1300.43 397.866 1315.32 371.738C1332.57 338.813 1347.93 302.907 1361.41 264.02C1357.1 259.62 1354.94 253.68 1354.94 246.198C1354.94 234.757 1358.39 223.978 1365.3 213.857C1372.19 203.735 1378.88 198.675 1385.35 198.675C1389.66 198.675 1393.11 201.316 1395.7 206.595C1398.72 211.876 1400.23 216.276 1400.23 219.796C1400.23 221.555 1399.15 225.516 1397 231.678C1395.27 237.395 1393.98 241.576 1393.11 244.219C1393.54 247.297 1395.27 250.378 1398.29 253.459C1401.31 256.099 1406.92 260.06 1415.11 265.338C1430.21 275.46 1441.85 285.361 1450.05 295.042C1458.68 304.283 1462.99 316.824 1462.99 332.665C1462.99 342.344 1461.26 352.026 1457.82 361.705C1454.79 371.387 1450.05 383.047 1443.58 396.688C1434.09 416.048 1429.35 429.911 1429.35 438.271C1429.35 448.392 1434.74 453.453 1445.52 453.453C1458.46 453.453 1472.48 448.172 1487.58 437.612C1503.11 427.049 1517.12 414.289 1529.63 399.329C1537.19 390.333 1543.57 381.715 1548.77 373.469C1550.09 368.837 1551.53 364.037 1553.11 359.065C1563.03 328.702 1575.32 302.082 1589.99 279.2C1605.08 256.316 1620.17 244.876 1635.28 244.876C1640.88 244.876 1645.41 246.638 1648.86 250.158C1652.74 253.236 1654.69 257.858 1654.69 264.018C1654.69 267.98 1652.96 273.478 1649.51 280.521C1646.06 287.121 1640.45 296.8 1632.69 309.56C1618.88 332.883 1607.88 353.564 1599.69 371.606C1591.93 389.209 1588.05 405.93 1588.05 421.771C1588.05 435.409 1590.41 444.652 1595.16 449.491C1599.91 454.331 1607.24 456.751 1617.16 456.751C1641.29 456.751 1665.31 439.869 1689.22 406.112C1689.9 392.373 1692.87 382.63 1698.12 376.887C1703.36 370.782 1709.08 366.003 1715.29 362.543C1716.44 360.32 1717.59 358.065 1718.74 355.765L1721.98 359.292C1727.44 356.71 1730.7 354.874 1731.77 353.784C1759.38 324.744 1780.29 294.6 1794.53 263.359V256.758C1794.53 240.476 1797.12 228.376 1802.29 220.456C1807.9 212.536 1815.02 208.574 1823.64 208.574C1833.13 208.574 1838.31 212.975 1839.17 221.775C1839.17 223.976 1838.52 227.276 1837.23 231.676C1836.37 236.074 1835.94 240.695 1835.94 245.537C1835.94 253.896 1837.23 262.697 1839.82 271.938C1842.41 281.178 1846.5 293.719 1852.11 309.56C1859.01 328.921 1864.19 345.643 1867.64 359.725C1871.52 373.805 1873.46 388.107 1873.46 402.629C1873.46 410.108 1872.6 419.129 1870.87 429.692C1900.2 422.211 1927.28 335.755 1970.94 318.901C2042.18 291.4 2321.81 298.001 2470.43 300.198C2490.17 300.49 1993.39 310.292 1960.43 346.068C1918.47 391.608 1904.3 443.652 1865.05 449.492C1858.15 467.093 1846.93 480.294 1831.41 489.095C1815.88 498.335 1797.98 502.955 1777.71 502.955L1777.7 502.956ZM1819.76 428.37C1821.05 424.411 1821.7 417.591 1821.7 407.909C1821.27 393.83 1819.76 379.967 1817.17 366.328C1814.58 352.685 1810.7 335.085 1805.53 313.524L1799.7 289.762C1778.57 327.165 1759.8 354.666 1743.41 372.269C1750.74 385.029 1761.1 396.689 1774.47 407.251C1787.84 417.373 1802.94 424.411 1819.76 428.37ZM1773.18 473.915C1781.8 473.915 1789.78 471.715 1797.11 467.315C1804.88 462.914 1810.7 456.533 1814.58 448.173C1797.76 444.654 1782.23 438.052 1768 428.37C1753.76 418.249 1742.33 407.469 1733.71 396.029C1727.67 397.348 1724.65 403.288 1724.65 413.851C1724.65 429.692 1728.97 443.771 1737.59 456.093C1746.21 467.972 1758.08 473.915 1773.18 473.915ZM1672.15 191.414C1663.1 191.414 1655.33 189.214 1648.86 184.813C1642.82 180.413 1639.8 174.031 1639.8 165.672C1639.8 155.55 1645.19 146.749 1655.98 139.27C1667.19 131.35 1679.05 127.389 1691.56 127.389C1710.11 127.389 1719.38 135.532 1719.38 151.811C1719.38 161.052 1714.42 170.072 1704.5 178.874C1694.58 187.234 1683.8 191.414 1672.15 191.414ZM1071.34 466.653C1086.43 466.653 1103.9 455.652 1123.75 433.651C1144.02 411.21 1166.88 382.168 1192.33 346.525L1205.27 328.703C1206.56 326.503 1208.29 325.403 1210.45 325.403L1213.03 326.065C1215.19 319.024 1216.27 310.885 1216.27 301.642C1216.27 278.76 1207.21 267.321 1189.1 267.321C1170.12 267.321 1150.28 277.661 1129.57 298.341C1108.87 319.025 1091.4 343.665 1077.17 372.269C1063.36 400.87 1056.46 425.293 1056.46 445.534C1056.46 453.013 1057.54 458.514 1059.7 462.035C1062.28 465.116 1066.16 466.653 1071.34 466.653Z" fill="black"/>
</svg>
